<svg xmlns="http://www.w3.org/2000/svg" viewBox="0 0 500 500" role="img" aria-label="Datentechnik Reitz DTR Logo">
  <rect width="500" height="500" fill="#ffffff"/>
  <path d="M398 58 A210 210 0 1 0 398 442" fill="none" stroke="#111111" stroke-width="54" stroke-linecap="round"/>
  <path d="M398 58 A210 210 0 1 0 398 442" fill="none" stroke="#ffffff" stroke-width="42" stroke-linecap="round"/>
  <path d="M350 80 A178 178 0 0 1 430 175" fill="none" stroke="#111111" stroke-width="44" stroke-linecap="butt" opacity="0.85"/>
  <path d="M345 80 A174 174 0 0 1 430 175" fill="none" stroke="#9b9b9b" stroke-width="36" stroke-linecap="butt"/>
  <path d="M431 323 A176 176 0 0 1 342 421" fill="none" stroke="#111111" stroke-width="44" stroke-linecap="butt" opacity="0.85"/>
  <path d="M431 323 A174 174 0 0 1 342 421" fill="none" stroke="#9b9b9b" stroke-width="36" stroke-linecap="butt"/>
  <path d="M295 112 L245 230 L330 230 L380 112 Z" fill="#9b9b9b" stroke="#111111" stroke-width="6" opacity="0.95"/>
  <path d="M245 270 L295 388 L380 388 L330 270 Z" fill="#9b9b9b" stroke="#111111" stroke-width="6" opacity="0.95"/>
  <text x="250" y="305" font-family="Arial Black, Arial, Helvetica, sans-serif" font-size="118" font-weight="900" fill="#111111">dtr</text>
</svg>
